HIERARCHY
ROOT Hips
{
  OFFSET -43.3411 73.6987 0
  CHANNELS 6 Xposition Yposition Zposition Zrotation Xrotation Yrotation
  JOINT Bip01_Pelvis
  {
    OFFSET 0 0 0
    CHANNELS 6 Xposition Yposition Zposition Zrotation Xrotation Yrotation
    JOINT BN_Tail_01
    {
      OFFSET -18.6385 -9.591 -2.032e-005
      CHANNELS 6 Xposition Yposition Zposition Zrotation Xrotation Yrotation
      JOINT BN_Tail_02
      {
        OFFSET 20.9743 0 0
        CHANNELS 6 Xposition Yposition Zposition Zrotation Xrotation Yrotation
        JOINT BN_Tail_03
        {
          OFFSET 20.3015 0 0
          CHANNELS 6 Xposition Yposition Zposition Zrotation Xrotation Yrotation
          JOINT BN_Tail_04
          {
            OFFSET 21.6394 -9.91821e-005 0
            CHANNELS 6 Xposition Yposition Zposition Zrotation Xrotation Yrotation
            End Site
            {
              OFFSET 0 0 0
            }
          }
        }
      }
    }
    JOINT Bip01_Spine
    {
      OFFSET 22.1878 -0.659386 3.048e-005
      CHANNELS 6 Xposition Yposition Zposition Zrotation Xrotation Yrotation
      JOINT Bip01_R_Thigh
      {
        OFFSET -22.1873 0.677109 -17.1024
        CHANNELS 6 Xposition Yposition Zposition Zrotation Xrotation Yrotation
        JOINT Bip01_R_Calf
        {
          OFFSET 34.2647 0 0
          CHANNELS 6 Xposition Yposition Zposition Zrotation Xrotation Yrotation
          JOINT Bip01_R_HorseLink
          {
            OFFSET 20.4429 0 0
            CHANNELS 6 Xposition Yposition Zposition Zrotation Xrotation Yrotation
            JOINT Bip01_R_Foot
            {
              OFFSET 16.5673 0 0
              CHANNELS 6 Xposition Yposition Zposition Zrotation Xrotation Yrotation
              JOINT Bip01_R_Toe0
              {
                OFFSET 9.18784 6.94841 0
                CHANNELS 6 Xposition Yposition Zposition Zrotation Xrotation Yrotation
                JOINT Bip01_R_Toe0Nub
                {
                  OFFSET 1.01907 0 0
                  CHANNELS 6 Xposition Yposition Zposition Zrotation Xrotation Yrotation
                  End Site
                  {
                    OFFSET 0 0 0
                  }
                }
              }
            }
          }
        }
      }
      JOINT Bip01_L_Thigh
      {
        OFFSET -22.1873 0.67701 17.1024
        CHANNELS 6 Xposition Yposition Zposition Zrotation Xrotation Yrotation
        JOINT Bip01_L_Calf
        {
          OFFSET 34.2647 0 0
          CHANNELS 6 Xposition Yposition Zposition Zrotation Xrotation Yrotation
          JOINT Bip01_L_HorseLink
          {
            OFFSET 20.4429 0 0
            CHANNELS 6 Xposition Yposition Zposition Zrotation Xrotation Yrotation
            JOINT Bip01_L_Foot
            {
              OFFSET 16.5673 0 0
              CHANNELS 6 Xposition Yposition Zposition Zrotation Xrotation Yrotation
              JOINT Bip01_L_Toe0
              {
                OFFSET 9.18784 6.9484 1.14441e-005
                CHANNELS 6 Xposition Yposition Zposition Zrotation Xrotation Yrotation
                JOINT Bip01_L_Toe0Nub
                {
                  OFFSET 1.01907 0 0
                  CHANNELS 6 Xposition Yposition Zposition Zrotation Xrotation Yrotation
                  End Site
                  {
                    OFFSET 0 0 0
                  }
                }
              }
            }
          }
        }
      }
      JOINT Bip01_Spine1
      {
        OFFSET 39.3372 -0.0249863 0
        CHANNELS 6 Xposition Yposition Zposition Zrotation Xrotation Yrotation
        JOINT Bip01_Neck
        {
          OFFSET 34.2837 -15.5934 -4.318e-005
          CHANNELS 6 Xposition Yposition Zposition Zrotation Xrotation Yrotation
          JOINT Bip01_R_Clavicle
          {
            OFFSET -17.9452 -11.3131 -6.19287
            CHANNELS 6 Xposition Yposition Zposition Zrotation Xrotation Yrotation
            JOINT Bip01_R_UpperArm
            {
              OFFSET 17.4439 1.52588e-005 -2.28882e-005
              CHANNELS 6 Xposition Yposition Zposition Zrotation Xrotation Yrotation
              JOINT Bip01_R_Forearm
              {
                OFFSET 30.6251 1.14441e-005 0
                CHANNELS 6 Xposition Yposition Zposition Zrotation Xrotation Yrotation
                JOINT Bip01_R_Hand
                {
                  OFFSET 31.2039 0 0
                  CHANNELS 6 Xposition Yposition Zposition Zrotation Xrotation Yrotation
                  JOINT Bip01_R_Finger0
                  {
                    OFFSET 22.1039 0.255862 -0.37902
                    CHANNELS 6 Xposition Yposition Zposition Zrotation Xrotation Yrotation
                    JOINT Bip01_R_Finger0Nub
                    {
                      OFFSET 12.0552 0 0
                      CHANNELS 6 Xposition Yposition Zposition Zrotation Xrotation Yrotation
                      End Site
                      {
                        OFFSET 0 0 0
                      }
                    }
                  }
                }
              }
            }
          }
          JOINT Bip01_L_Clavicle
          {
            OFFSET -17.9452 -11.3132 6.19281
            CHANNELS 6 Xposition Yposition Zposition Zrotation Xrotation Yrotation
            JOINT Bip01_L_UpperArm
            {
              OFFSET 17.444 0 1.14441e-005
              CHANNELS 6 Xposition Yposition Zposition Zrotation Xrotation Yrotation
              JOINT Bip01_L_Forearm
              {
                OFFSET 30.6251 0 0
                CHANNELS 6 Xposition Yposition Zposition Zrotation Xrotation Yrotation
                JOINT Bip01_L_Hand
                {
                  OFFSET 31.204 0 0
                  CHANNELS 6 Xposition Yposition Zposition Zrotation Xrotation Yrotation
                  JOINT Bip01_L_Finger0
                  {
                    OFFSET 22.1039 0.255856 0.379024
                    CHANNELS 6 Xposition Yposition Zposition Zrotation Xrotation Yrotation
                    JOINT Bip01_L_Finger0Nub
                    {
                      OFFSET 12.0552 0 0
                      CHANNELS 6 Xposition Yposition Zposition Zrotation Xrotation Yrotation
                      End Site
                      {
                        OFFSET 0 0 0
                      }
                    }
                  }
                }
              }
            }
          }
          JOINT Bip01_Neck1
          {
            OFFSET 14.9359 -0.0106278 0
            CHANNELS 6 Xposition Yposition Zposition Zrotation Xrotation Yrotation
            JOINT Bip01_Head
            {
              OFFSET 14.3578 0.505501 0
              CHANNELS 6 Xposition Yposition Zposition Zrotation Xrotation Yrotation
              JOINT BN_Ear_L_01
              {
                OFFSET 3.76994 -2.35629 12.3444
                CHANNELS 6 Xposition Yposition Zposition Zrotation Xrotation Yrotation
                End Site
                {
                  OFFSET 0 0 0
                }
              }
              JOINT BN_Ear_R_01
              {
                OFFSET 3.76995 -2.35622 -12.3442
                CHANNELS 6 Xposition Yposition Zposition Zrotation Xrotation Yrotation
                End Site
                {
                  OFFSET 0 0 0
                }
              }
              JOINT BN_Mouth_01
              {
                OFFSET 11.8395 10.8645 1.27e-005
                CHANNELS 6 Xposition Yposition Zposition Zrotation Xrotation Yrotation
                JOINT BN_Tongue_01
                {
                  OFFSET 9.73752 3.21674 1.016e-005
                  CHANNELS 6 Xposition Yposition Zposition Zrotation Xrotation Yrotation
                  JOINT BN_Tongue_02
                  {
                    OFFSET 9.04304 0.053505 0
                    CHANNELS 6 Xposition Yposition Zposition Zrotation Xrotation Yrotation
                    End Site
                    {
                      OFFSET 0 0 0
                    }
                  }
                }
                JOINT BN_Beard_01
                {
                  OFFSET 6.93466 -0.751793 0
                  CHANNELS 6 Xposition Yposition Zposition Zrotation Xrotation Yrotation
                  JOINT BN_Beard_02
                  {
                    OFFSET 13.0965 1.52588e-005 0
                    CHANNELS 6 Xposition Yposition Zposition Zrotation Xrotation Yrotation
                    End Site
                    {
                      OFFSET 0 0 0
                    }
                  }
                }
              }
              JOINT Bip01_HeadNub
              {
                OFFSET 25.6158 0 0
                CHANNELS 6 Xposition Yposition Zposition Zrotation Xrotation Yrotation
                End Site
                {
                  OFFSET 0 0 0
                }
              }
            }
          }
        }
      }
    }
  }
}
MOTION
Frames:	4
Frame Time:	0.0333333
-88.4143 94.8346 3.39599 101.544 -87.889 -166.927 -3.8147e-006 4.76837e-007 0 -91.774 -8.34983 -95.5917 -18.6385 -9.59102 -4.76837e-007 -31.8682 2.64792 -140.88 20.9743 -6.53699e-012 -0.00129747 20.8413 -8.66019 -0.294273 20.3015 -7.62934e-006 -0.000935078 23.196 10.631 3.16982 21.6394 5.8435e-011 -0.000849724 33.8228 -3.43532 -39.0799 21.7472 -3.8717 -2.14735 -15.7636 -7.34544 1.27783 -21.638 -0.251576 -15.5986 -105.574 -6.97636 -172.379 34.2647 -7.62939e-006 5.32907e-015 -81.5324 1.1414e-006 9.94823e-006 20.4429 3.8147e-006 -1.90735e-006 115.095 -2.05782e-007 -9.56174e-009 16.5673 1.52588e-005 3.8147e-006 -86.3992 2.33849 -0.068568 9.18786 6.94841 -3.80069e-006 119.986 -2.2131e-008 -8.86656e-008 1.01909 5.68434e-013 3.8147e-006 -8.56051e-008 5.05942e-009 3.20246e-007 -22.3957 -4.62668 18.3169 -101.197 -1.30841 -162.486 34.2647 -3.8147e-006 -1.90735e-006 -101.083 3.55511e-006 -1.81271e-005 20.4429 -1.90735e-006 2.13163e-014 80.2823 1.52478e-006 -9.82896e-006 16.5673 1.42109e-014 -2.13163e-014 -50.1806 6.02401 -1.43836 9.18784 6.94842 -3.91836e-006 146.151 -3.48453 12.8519 1.01907 1.84741e-013 0 -179.96 -0.000114973 7.14949e-005 39.3544 -0.0180905 -0.000957489 43.5109 2.77177 8.15375 34.2892 -15.5918 4.86225e-005 16.8519 2.73465 -2.23705 -20.3718 -6.90302 -5.07774 162.494 -24.3297 89.0684 17.4439 -3.8147e-006 2.13163e-014 -26.3671 80.9236 -25.0231 30.6251 -3.8147e-006 -2.55795e-013 -102.682 -3.39086e-006 1.01973e-005 31.2039 9.53676e-007 -1.90735e-006 160.464 75.6761 -110.297 22.1039 0.255853 -0.37903 -2.17796 0.263222 25.9202 12.0552 -3.81471e-006 2.98022e-007 179.96 1.87955e-005 -3.60409e-006 -19.8882 -6.31169 7.28436 164.362 42.9956 -77.9259 17.444 -7.6294e-006 3.8147e-006 -135.57 -56.6263 -97.9477 30.6251 2.86103e-006 -1.84741e-013 -55.8884 -1.20238e-005 -1.55105e-005 31.204 -7.62941e-006 0 85.9432 -82.6862 83.4775 22.1039 0.255851 0.379039 -11.8899 1.06806 10.9786 12.0552 -3.16192e-013 3.81469e-006 -1.6142e-007 1.03261e-005 4.23305e-007 14.9354 -0.0106583 0.000169754 31.6429 -6.9094 -2.2534 14.3578 0.505501 -4.62502e-007 59.4487 8.40134 10.5211 3.76991 -2.35628 12.3444 172.001 44.9545 -72.0988 3.76995 -2.3562 -12.3442 57.3613 25.4748 35.6815 11.8396 10.8645 5.09863e-008 -167.019 -3.91695 179.456 9.73751 3.21675 -1.03401e-007 -2.85749 4.54029e-007 1.90341e-006 5.17481 0.535241 -0.159797 -9.7303 1.27983e-007 9.57509e-006 6.93467 -0.751786 -9.29509e-007 -13.7776 -21.4553 2.19994 13.0966 3.05176e-005 2.38418e-007 9.30318 -19.3178 -13.9129 25.6158 -3.55272e-014 0 -6.59263e-008 1.08709e-006 9.39227e-007 
-78.9163 94.0663 3.31209 97.8226 -86.9067 -161.993 -3.8147e-006 4.76837e-007 1.42109e-014 -93.097 -10.5428 -95.2831 -18.6385 -9.59102 -4.76837e-007 -31.6559 4.95041 -143.534 20.9743 -2.0222e-011 -0.00129747 17.8512 -7.2643 2.30363 20.3015 -7.62936e-006 -0.000935078 21.6732 12.7288 9.15572 21.6394 4.49063e-011 -0.000849724 33.4506 -5.44059 -31.6164 21.5952 -4.7046 -2.02857 -15.3934 -6.30316 2.91595 -21.271 0.466015 -16.2183 -115.114 -7.02089 -172.693 34.2647 -7.62939e-006 -5.32907e-015 -80.9975 1.23474e-006 9.93681e-006 20.4429 3.8147e-006 -1.90735e-006 114.612 -2.04389e-007 -1.08068e-008 16.5673 1.52588e-005 3.8147e-006 -81.2007 2.46581 -0.027088 9.18786 6.94841 -3.80069e-006 116.38 -0.000708225 0.00771108 1.01909 5.36459e-013 3.8147e-006 -8.56051e-008 5.05942e-009 3.20246e-007 -23.002 -3.29052 17.7355 -107.33 -1.06361 -162.148 34.2647 -3.8147e-006 -1.90735e-006 -103.511 4.14774e-006 -1.80079e-005 20.4429 -1.90735e-006 -1.42109e-014 87.3857 2.65277e-007 -9.85472e-006 16.5673 -1.42109e-014 -7.10543e-015 -43.823 5.14661 -3.85001 9.18784 6.94842 -3.90918e-006 140.127 -3.67162 11.8402 1.01907 1.84741e-013 7.10543e-015 -179.96 -0.000114974 7.14947e-005 39.3459 -0.0233967 -0.000957489 20.3672 1.75008 8.6221 34.2892 -15.5918 4.86251e-005 17.2289 1.67621 -1.54872 -20.3554 -6.66182 -5.45199 162.185 -28.3713 89.4739 17.4439 -3.8147e-006 -1.42109e-014 6.68572 72.3714 -52.0764 30.6251 -3.8147e-006 -9.94759e-014 -99.2897 -1.24843e-005 7.14975e-006 31.2039 9.53676e-007 -1.90735e-006 160.719 71.4772 -127.281 22.1039 0.255853 -0.37903 -2.20669 0.384693 23.6589 12.0552 -3.81471e-006 2.98022e-007 179.96 1.87948e-005 -3.60572e-006 -20.0206 -6.29895 6.9238 163.611 41.9965 -86.8142 17.444 -7.6294e-006 3.8147e-006 -128.957 -72.4974 -95.6077 30.6251 2.86103e-006 -1.77636e-013 -54.6996 -1.9648e-005 -9.71724e-006 31.204 -7.62941e-006 0 172.067 -83.5955 165.396 22.1039 0.255851 0.379039 -11.9327 3.2003 12.9221 12.0552 -1.63425e-013 3.81469e-006 -1.6142e-007 1.03261e-005 4.23306e-007 14.9354 -0.0106583 0.000169754 33.1253 -5.7597 -1.44368 14.3578 0.505501 -4.60047e-007 72.1019 2.68718 9.9127 3.76991 -2.35628 12.3444 177.595 45.5563 -80.6516 3.76995 -2.3562 -12.3442 55.7018 21.9926 38.7266 11.8396 10.8645 -3.3116e-007 -168.669 -3.8502 179.341 9.73751 3.21675 -1.84265e-007 -2.85749 3.59125e-007 1.91936e-006 5.17481 0.535241 -0.159797 -9.7303 -1.23725e-007 9.34726e-006 6.93467 -0.751786 -9.1061e-007 -9.87706 -17.4453 6.1181 13.0965 3.05176e-005 2.38418e-007 4.64969 -17.6182 -14.7018 25.6158 0 0 -6.59263e-008 1.08709e-006 9.39227e-007 
-69.4403 92.2161 3.22715 94.003 -86.1168 -157.116 -3.8147e-006 4.76837e-007 -2.84217e-014 -94.2663 -12.1836 -94.9781 -18.6385 -9.59102 -4.76837e-007 -30.2006 11.2654 -149.935 20.9743 -5.06759e-011 -0.00129747 11.8376 -4.04829 5.46994 20.3015 -7.62941e-006 -0.000935078 19.6568 14.4393 14.6864 21.6394 6.70752e-012 -0.000849724 34.4497 -10.3535 -20.5264 21.4624 -5.32453 -1.91585 -14.9504 -5.09441 4.22242 -20.9329 0.957299 -16.7486 -121.334 -6.9617 -172.643 34.2647 -7.62939e-006 3.55271e-015 -80.9564 1.24196e-006 9.93605e-006 20.4429 3.8147e-006 -1.90735e-006 110.501 -2.02466e-007 -2.56468e-008 16.5673 1.52588e-005 3.8147e-006 -71.5512 2.46787 -0.0926308 9.18786 6.94841 -3.80069e-006 115.337 -1.86158e-008 -4.98923e-008 1.01909 5.40012e-013 3.8147e-006 -8.56051e-008 5.05942e-009 3.20246e-007 -23.442 -2.08143 17.2286 -114.439 -1.46816 -162.134 34.2647 -3.8147e-006 -1.90735e-006 -106.595 5.39086e-006 -1.76937e-005 20.4429 -1.90735e-006 -1.42109e-014 93.3341 1.9801e-007 -9.80414e-006 16.5673 5.68434e-014 0 -37.1399 3.39095 -6.22846 9.18784 6.94842 -3.90333e-006 133.938 -3.79899 10.4979 1.01907 2.06058e-013 0 -179.96 -0.000114974 7.14946e-005 39.3362 -0.0249611 -0.000957489 -2.49819 0.506916 8.26303 34.2892 -15.5918 4.86279e-005 17.4335 0.437461 -0.654384 -20.2928 -6.45818 -5.91131 162.166 -34.6407 92.6305 17.4439 -3.8147e-006 -1.95399e-014 20.3005 66.9378 -58.2012 30.6251 -3.8147e-006 -2.13163e-014 -93.7988 -1.18951e-005 7.40494e-006 31.2039 9.53676e-007 -1.90735e-006 165.867 67.1771 -141.816 22.1039 0.255853 -0.37903 -2.19405 0.444776 20.3537 12.0552 -3.81471e-006 2.98021e-007 179.96 1.87942e-005 -3.60749e-006 -20.1507 -6.36302 6.47319 162.938 40.7583 -94.9509 17.444 -7.6294e-006 3.8147e-006 -96.4255 -82.897 -64.2976 30.6251 2.86103e-006 -1.7053e-013 -49.0874 -2.09226e-005 -7.54031e-006 31.204 -7.62941e-006 0 -159.192 -76.4644 -168.813 22.1039 0.255851 0.379039 -11.625 5.19829 12.5224 12.0552 -1.42109e-014 3.81469e-006 -1.6142e-007 1.03261e-005 4.23306e-007 14.9354 -0.0106583 0.000169754 34.619 -4.16613 -0.530152 14.3578 0.505501 -4.58405e-007 81.5849 -4.28684 9.11654 3.76991 -2.35628 12.3444 -175.014 44.4351 -91.6822 3.76995 -2.3562 -12.3442 54.3029 18.5087 41.5438 11.8396 10.8645 -5.51952e-007 -170.036 -3.89844 179.251 9.73751 3.21676 -2.21168e-007 -2.85749 3.32139e-007 1.03995e-006 5.17481 0.535241 -0.159797 -9.7303 -2.94491e-007 9.24801e-006 6.93467 -0.751786 -9.01985e-007 -9.38484 -12.2023 8.45543 13.0965 3.05176e-005 2.38418e-007 -0.56526 -15.7542 -15.6815 25.6158 -3.55272e-015 1.06581e-014 -6.59262e-008 1.08709e-006 9.39227e-007 
-61.5089 89.3682 3.15396 91.3894 -85.6926 -154.019 -3.8147e-006 4.76837e-007 0 -92.4949 4.39144 -91.0612 -18.6385 -9.59102 -4.76837e-007 -25.854 20.9658 -158.592 20.9743 -8.41567e-011 -0.00129747 3.57081 0.279022 8.93299 20.3015 -7.62945e-006 -0.000935078 17.1308 15.766 19.7291 21.6394 -6.97185e-011 -0.000849724 38.9807 -18.1035 -7.02623 22.1676 1.04439 -0.437424 2.40059 -5.13775 1.30175 -21.8085 1.37917 -17.1084 -126.226 -7.58684 -173.152 34.2647 -7.62939e-006 3.55271e-015 -74.2161 2.39817e-006 9.72361e-006 20.4429 3.8147e-006 -1.90735e-006 95.0602 -1.92677e-007 -8.17442e-008 16.5673 1.52588e-005 3.8147e-006 -63.6 1.82809 -0.393248 9.18786 6.94841 -3.80069e-006 117.949 -1.91154e-008 -8.93813e-008 1.01909 5.43565e-013 3.8147e-006 -8.56051e-008 5.05942e-009 3.20246e-007 -22.583 -1.68427 16.9502 -118.903 -1.73116 -162.669 34.2647 -3.8147e-006 -1.90735e-006 -110.697 5.86919e-006 -1.76274e-005 20.4429 -1.90735e-006 1.42109e-014 101.492 -2.00955e-006 -9.45623e-006 16.5673 1.42109e-014 -4.26326e-014 -33.1221 0.951141 -7.97017 9.18784 6.94842 -3.89547e-006 127.686 -3.77958 9.13624 1.01907 1.7053e-013 0 -179.96 -0.000114974 7.14945e-005 39.3306 -0.0240874 -0.000957489 -15.3941 0.00662655 7.16229 34.2892 -15.5918 4.86306e-005 17.3628 -0.886292 0.31222 -20.1812 -6.33813 -6.40314 162.626 -52.7451 111.929 17.4439 -3.8147e-006 3.55271e-015 52.2474 57.1184 -73.4114 30.6251 -3.8147e-006 -1.63425e-013 -84.3798 -1.08145e-005 1.03383e-005 31.204 9.53676e-007 -1.90735e-006 -177.857 64.3362 -158.096 22.1039 0.255853 -0.37903 -2.22633 0.194357 11.3061 12.0552 -3.81471e-006 2.98021e-007 179.96 1.8795e-005 -3.60827e-006 -20.249 -6.53038 5.98086 162.555 40.0353 -98.6601 17.444 -7.6294e-006 3.8147e-006 -53.2631 -83.1861 -21.2949 30.6251 2.86103e-006 -1.49214e-013 -45.1349 -1.55699e-005 -1.21578e-005 31.204 -7.62941e-006 7.10542e-015 -156.195 -72.6507 -166.003 22.1039 0.255851 0.379039 -10.7624 6.07327 10.0773 12.0552 2.13163e-014 3.81469e-006 -1.6142e-007 1.03261e-005 4.23306e-007 14.9354 -0.0106583 0.000169754 35.8267 -2.36388 0.396623 14.3578 0.505501 -4.57131e-007 81.0355 -10.7422 7.18409 3.76991 -2.35628 12.3444 -168.122 41.0028 -102.105 3.76995 -2.3562 -12.3442 53.3173 15.6632 44.3575 11.8396 10.8645 -4.87303e-007 -170.99 -3.83825 179.183 9.73751 3.21676 -1.98726e-007 -2.85749 4.58825e-007 -1.7282e-007 5.17481 0.535241 -0.159797 -9.7303 -8.1839e-009 9.30447e-006 6.93467 -0.751786 -9.0723e-007 -12.9264 -7.01608 8.76738 13.0965 3.05176e-005 2.38418e-007 -5.75158 -13.7933 -16.4802 25.6158 -1.954e-014 0 -6.59264e-008 1.08709e-006 9.39227e-007 
